#!OML:ASF I:\Actors\actors\Patient Classification 2\Patient 1\Session 1\actor1.ASF
:FULLY-SPECIFIED
:DEGREES
537
root 0.636653 18.5837 5.90506 7.8074 28.5356 -3.08248
lowerback 15.8043 6.70543 1.44828
upperback 2.15339 9.244 1.83901
thorax -6.55896 4.49179 -0.807513
lowerneck -7.47994 -10.3062 -10.8057
upperneck 25.6166 -14.7491 9.49768
head 11.034 -6.69897 3.37505
rclavicle 1.72545e-013 -1.90833e-014
rhumerus -9.20933 10.8315 -72.5257
rradius 64.5646
rwrist -21.2464
rhand -14.5456 -71.1909
rfingers 7.12502
rthumb 11.603 -259.15
lclavicle 1.72545e-013 -1.90833e-014
lhumerus -50.9292 -23.8886 103.185
lradius 88.3855
lwrist 34.1873
lhand -10.6828 -8.19955
lfingers 7.12502
lthumb 15.326 21.2125
rfemur 4.79115 -17.174 15.5687
rtibia 7.95139e-015
rfoot -22.9927 -12.9046
rtoes 4.48319
lfemur -26.2863 -14.785 -11.7387
ltibia 36.2062
lfoot -18.1662 1.30883
ltoes -54.9606
538
root 0.653067 18.5844 5.90285 7.88152 28.7823 -3.11677
lowerback 15.9748 6.77437 1.5001
upperback 2.23175 9.34282 1.82231
thorax -6.55548 4.53788 -0.88809
lowerneck -7.51773 -10.4366 -10.8461
upperneck 25.4759 -14.9566 9.66994
head 11.0331 -6.78024 3.40794
rclavicle -2.70347e-014 6.2816e-014
rhumerus -7.65287 10.2682 -72.0384
rradius 63.3966
rwrist -20.9858
rhand -13.001 -71.6601
rfingers 7.12502
rthumb 13.0922 -258.771
lclavicle -2.70347e-014 6.2816e-014
lhumerus -50.8074 -24.0285 103.075
lradius 88.428
lwrist 34.2302
lhand -10.7078 -8.28695
lfingers 7.12502
lthumb 15.302 21.127
rfemur 4.75762 -17.3893 15.5716
rtibia 1.27222e-014
rfoot -23.018 -12.8874
rtoes 4.81393
lfemur -26.4498 -14.9253 -11.7173
ltibia 36.2378
lfoot -18.106 1.25924
ltoes -54.7576
539
root 0.671643 18.5841 5.89801 7.99561 28.9797 -3.12347
lowerback 16.1 6.81852 1.54759
upperback 2.31185 9.40818 1.81705
thorax -6.52827 4.56884 -0.941893
lowerneck -7.60979 -10.5328 -10.9617
upperneck 25.3884 -15.1019 9.83591
head 11.062 -6.83779 3.45729
rclavicle 1.66979e-014 7.95139e-016
rhumerus -6.09094 9.72333 -71.5498
rradius 62.2043
rwrist -20.3676
rhand -12.0987 -71.5552
rfingers 7.12502
rthumb 13.9619 -258.934
lclavicle 1.66979e-014 7.95139e-016
lhumerus -50.6771 -24.1044 103
lradius 88.4833
lwrist 34.2557
lhand -10.7814 -8.25854
lfingers 7.12502
lthumb 15.2311 21.1608
rfemur 4.65199 -17.5634 15.554
rtibia -1.11319e-014
rfoot -22.955 -12.9731
rtoes 4.76283
lfemur -26.629 -15.0176 -11.7385
ltibia 36.2574
lfoot -18.0268 1.23838
ltoes -54.6182
540
root 0.689094 18.5837 5.88964 8.12631 29.0483 -2.99993
lowerback 16.2937 6.91804 1.46947
upperback 2.38118 9.52336 1.77447
thorax -6.56258 4.62442 -0.987664
lowerneck -7.58665 -10.6544 -11.0403
upperneck 25.2067 -15.2865 9.98906
head 11.0336 -6.9179 3.495
rclavicle -1.00983e-013 7.95139e-016
rhumerus -4.70184 8.5497 -71.5244
rradius 61.1042
rwrist -19.706
rhand -20.0101 -68.5402
rfingers 7.12502
rthumb 6.33009 -261.574
lclavicle -1.00983e-013 7.95139e-016
lhumerus -50.5606 -24.1454 102.954
lradius 88.4698
lwrist 34.2167
lhand -10.7329 -8.23055
lfingers 7.12502
lthumb 15.2778 21.1852
rfemur 4.57555 -17.6234 15.3914
rtibia -1.43125e-014
rfoot -22.8717 -13.0294
rtoes 4.66645
lfemur -26.7405 -15.0601 -11.9065
ltibia 36.2746
lfoot -17.9831 1.26186
ltoes -54.5317
541
root 0.701437 18.5834 5.88185 8.22405 29.0279 -2.79294
lowerback 16.556 7.07945 1.25545
upperback 2.45428 9.69522 1.71441
thorax -6.64826 4.70874 -1.00067
lowerneck -7.43761 -10.818 -11.1455
upperneck 24.9475 -15.5491 10.2204
head 10.9718 -7.03462 3.5585
rclavicle 4.41302e-014 1.03368e-014
rhumerus -3.40431 5.15343 -72.4715
rradius 59.7485
rwrist -15.4913
rhand -19.8552 -63.3575
rfingers 7.12502
rthumb 6.47963 -266.762
lclavicle 4.41302e-014 1.03368e-014
lhumerus -50.4876 -24.2361 102.932
lradius 88.4521
lwrist 34.189
lhand -10.5716 -8.31941
lfingers 7.12502
lthumb 15.4331 21.0844
rfemur 4.58672 -17.5993 15.1329
rtibia -7.95139e-015
rfoot -22.843 -13.0025
rtoes 4.86998
lfemur -26.7615 -15.1014 -12.1623
ltibia 36.3049
lfoot -17.9696 1.31893
ltoes -54.4566
542
root 0.710935 18.5822 5.87773 8.26515 29.1383 -2.77188
lowerback 16.7634 7.17728 1.26863
upperback 2.50146 9.82411 1.67046
thorax -6.69801 4.76808 -1.10427
lowerneck -7.33016 -10.9766 -11.2693
upperneck 24.7528 -15.8118 10.4831
head 10.9485 -7.14697 3.63413
rclavicle -6.44062e-014 1.59028e-014
rhumerus -2.08477 5.8104 -71.2008
rradius 58.5702
rwrist -15.7347
rhand -12.5172 -69.5139
rfingers 7.12502
rthumb 13.5586 -260.948
lclavicle -6.44062e-014 1.59028e-014
lhumerus -50.4584 -24.4476 102.893
lradius 88.5259
lwrist 34.2618
lhand -10.4863 -8.35145
lfingers 7.12502
lthumb 15.5154 21.0461
rfemur 4.58991 -17.6829 15.087
rtibia 2.06736e-014
rfoot -22.8958 -12.9203
rtoes 5.35791
lfemur -26.853 -15.1879 -12.1982
ltibia 36.3528
lfoot -17.9157 1.31062
ltoes -54.4125
543
root 0.721578 18.581 5.87595 8.28905 29.3184 -2.90812
lowerback 16.8802 7.2187 1.47553
upperback 2.52241 9.91441 1.64435
thorax -6.69763 4.80605 -1.27409
lowerneck -7.33177 -11.1094 -11.3475
upperneck 24.652 -16.0304 10.6865
head 10.9671 -7.23465 3.683
rclavicle -1.63003e-014 1.03368e-014
rhumerus -1.15485 4.13406 -71.9452
rradius 57.9408
rwrist -15.7795
rhand -10.7834 -71.6567
rfingers 7.12502
rthumb 15.2291 -258.924
lclavicle -1.63003e-014 1.03368e-014
lhumerus -50.35 -24.6785 102.824
lradius 88.5698
lwrist 34.3744
lhand -10.4762 -8.22813
lfingers 7.12502
lthumb 15.5251 21.1686
rfemur 4.52711 -17.8208 15.2188
rtibia -1.59028e-015
rfoot -22.9318 -12.8805
rtoes 5.6861
lfemur -27.026 -15.2795 -12.0599
ltibia 36.4164
lfoot -17.8514 1.30252
ltoes -54.4538
